<?xml version="1.0" standalone="no"?>
<!DOCTYPE svg PUBLIC "-//W3C//DTD SVG 20010904//EN"
 "http://www.w3.org/TR/2001/REC-SVG-20010904/DTD/svg10.dtd">
<svg version="1.0" xmlns="http://www.w3.org/2000/svg"
 width="236.000000pt" height="35.000000pt" viewBox="0 0 236.000000 35.000000"
 preserveAspectRatio="xMidYMid meet">

<g transform="translate(0.000000,35.000000) scale(0.100000,-0.100000)"
fill="#000000" stroke="none">
<path d="M174 315 c3 -8 -7 -15 -25 -19 -16 -3 -42 -9 -58 -12 -27 -6 -31 -12
-43 -68 -7 -33 -13 -85 -13 -115 0 -52 1 -55 35 -71 32 -15 62 -16 340 -7 221
7 371 7 545 -2 168 -8 273 -8 350 -1 159 14 574 30 790 30 l185 0 0 30 c0 17
7 47 15 67 9 20 13 43 10 51 -3 7 0 22 6 33 8 16 5 27 -16 55 -24 31 -29 34
-64 28 -20 -3 -55 -1 -76 5 -23 6 -44 7 -55 1 -11 -6 -21 -5 -27 1 -7 7 -17 8
-29 1 -22 -11 -211 -9 -237 2 -10 5 -23 3 -32 -4 -7 -6 -43 -13 -79 -15 -51
-2 -66 0 -66 11 0 18 -15 18 -46 -2 -20 -14 -29 -15 -51 -5 -14 7 -29 8 -32 4
-8 -11 -93 -10 -110 1 -10 6 -18 3 -28 -10 -13 -17 -15 -17 -43 -1 -23 14 -33
15 -48 6 -14 -9 -27 -9 -50 -1 -26 9 -35 8 -48 -5 -13 -13 -31 -15 -112 -9
-53 4 -106 7 -117 6 -11 0 -83 0 -160 1 -171 2 -209 1 -305 -4 -51 -3 -84 0
-102 9 -34 18 -48 18 -48 0 0 -8 -13 -16 -29 -18 -27 -4 -29 -2 -20 15 14 26
3 34 -19 14 -21 -20 -43 -22 -39 -5 1 6 -11 12 -26 13 -19 1 -26 -2 -23 -10z"/>
</g>
</svg>
